<?xml version="1.0" encoding="utf-8"?>
<!-- Generator: Adobe Illustrator 19.1.0, SVG Export Plug-In . SVG Version: 6.00 Build 0)  -->
<svg version="1.1" id="Layer_1" xmlns="http://www.w3.org/2000/svg" xmlns:xlink="http://www.w3.org/1999/xlink" x="0px" y="0px"
	 width="50px" height="52px" viewBox="-280 371 50 52" style="enable-background:new -280 371 50 52;" xml:space="preserve">
<style type="text/css">
	.st0{fill:#FFA100;}
</style>
<g id="Layer_2">
	<g id="Layer_1-2">
		<path class="st0" d="M-230.9,418.8h-2.1l-18.7-30c-0.9,0-1.8,0-2.7,0c0-2.3,0-4.5,0-6.8c0-0.4,0-0.8,0-1.2c0-0.3,0-0.4,0-0.7
			s0-0.5-0.2-1c-0.1-0.1-0.1-0.4-0.3-0.7c-2.3-2.3-4.6-4.6-6.8-7c-0.2-0.1-0.4-0.1-0.5,0c-1.6,2.2-3.1,4.5-4.6,6.7
			c-0.3,0.4-0.5,1-0.4,1.6c0,11.7,0,4.1,0,15.8v1.1l-0.4-0.4c-0.9-1.1-1.8-2.2-2.8-3.3c-0.1-0.1-0.3-0.1-0.5-0.1
			c-1.7,1.4-3.3,2.7-5,4.1c-0.4,0.3-0.6,0.7-0.6,1.6v20.3h-2.2c-0.4,0-0.5,0.3-0.5,1.1v1.5c0,1.4,0,1.4,0.7,1.4h47.7
			c0.3,0,0.4-0.3,0.4-0.7V420C-230.4,418.9-230.5,418.8-230.9,418.8z M-261.7,372.7c0.2,0.1,0.3,0.3,0.4,0.4c5.4,5.5,5,5.2,5.8,6
			c0,0,0,0,0.1,0c0,0,0.1,0.1,0.2,0.3c0.2,0.4,0.2,1,0.2,1c0,3.1,0,4.5,0,4.5c0,0.8,0,0.7,0,3.7c0,0.4,0,0.7,0,1
			c0.1,0.1,0.2,0.1,0.3,0.3c0.2,0.1,0.3,0.1,0.4,0.1h2.6v28.8h-8v-28.3c0-0.7-0.1-1-0.5-1h-1.6L-261.7,372.7L-261.7,372.7z
			 M-270.4,394.4c0.1,0,0.2,0.1,0.3,0.3c0.8,1.1,1.8,2,2.6,3.1c0.2,0.3,0.3,0.7,0.3,1v20h-3.1L-270.4,394.4L-270.4,394.4z
			 M-230.9,421.6h-47.7V420h47.7L-230.9,421.6L-230.9,421.6z"/>
		<polygon class="st0" points="-251.7,389.6 -251.7,418.6 -234.3,418.8 		"/>
	</g>
</g>
</svg>
