<?xml version="1.0" encoding="utf-8"?>
<!-- Generator: Adobe Illustrator 19.1.0, SVG Export Plug-In . SVG Version: 6.00 Build 0)  -->
<svg version="1.1" id="Layer_1" xmlns="http://www.w3.org/2000/svg" xmlns:xlink="http://www.w3.org/1999/xlink" x="0px" y="0px"
	 width="53.7px" height="52px" viewBox="-278 371 53.7 52" style="enable-background:new -278 371 53.7 52;" xml:space="preserve">
<style type="text/css">
	.st0{fill:#FFA100;}
</style>
<g id="Layer_2">
	<g id="Layer_1-2">
		<path class="st0" d="M-251.2,423h-24.7c-2,0-2.3-0.4-2-2.3c0.5-3.2,0.9-6.3,1.5-9.5c0.4-2,1.6-3.7,3.4-4.6
			c3.4-1.9,6.9-3.7,10.4-5.4c0.8-0.1,1.6,0.1,2.2,0.6c5.1,4,11.4,4.6,16.7,1.3c0.8-0.5,1.5-1,2.2-1.6c0.6-0.6,1.5-0.7,2.2-0.2
			c3.1,1.6,6.3,3.2,9.4,4.9c2.4,1.2,4,3.5,4.3,6.2s0.8,5.5,1.3,8.2c0.3,1.8-0.2,2.4-2,2.4H-251.2z"/>
		<path class="st0" d="M-240.4,390.5c-0.3,0.8-3.6,8.8-10.4,9c-5.9,0.2-9.9-5.6-11.3-9.6c-0.4-1.2-1.7-5.2,0.1-9.8
			c1.5-4,5.7-9.3,11.5-9c6.7,0.3,9.9,7.9,10.2,8.6C-238.3,384.8-239.9,389.3-240.4,390.5z"/>
	</g>
</g>
</svg>
