<?xml version="1.0" encoding="utf-8"?>
<!-- Generator: Adobe Illustrator 19.1.0, SVG Export Plug-In . SVG Version: 6.00 Build 0)  -->
<svg version="1.1" id="Layer_1" xmlns="http://www.w3.org/2000/svg" xmlns:xlink="http://www.w3.org/1999/xlink" x="0px" y="0px"
	 width="218px" height="118.6px" viewBox="-196 337.4 218 118.6" style="enable-background:new -196 337.4 218 118.6;"
	 xml:space="preserve">
<style type="text/css">
	.st0{fill:#00643E;}
	.st1{display:none;}
	.st2{display:inline;fill:#F99B1F;}
	.st3{clip-path:url(#SVGID_2_);}
	.st4{fill:url(#SVGID_3_);}
	.st5{clip-path:url(#SVGID_5_);}
	.st6{fill:url(#SVGID_6_);}
	.st7{fill:#F99B1F;}
</style>
<path class="st0" d="M-56.7,354.3c-0.9,0.4-1.4-1.9-1.5-2.5s-0.2-1.1-0.9-0.9c-0.8,0.2-0.4,1.1-0.2,1.6c0.2,0.7,0.3,1.3,0.4,2
	c0,0-0.1,0.6-0.6,0.7c-1.4,0.3-1.3-2.9-1.3-2.9s-0.2-0.6-0.6-0.6s-0.8,0.7-0.8,0.8c0.2,1.1,0.4,2.1,0.8,3.1c0.6,1.9,1.9,1.6,2.5,1.4
	c0.7-0.2,1-1.3,1.2-1.4c0.2-0.1,1.9,0.2,2.1-0.7c0.6-2.2-0.8-4.2-1.3-4.8c-0.4-0.6-0.9,0-0.9,0C-56.8,351.3-55.8,353.9-56.7,354.3
	 M-12.9,344.2c-1.7,0.8-2.8,2.4-2.8,4.3c-0.1,1.9,2.4,2.8,2.4,2.8c-0.4,0.7-0.6,1.6-0.4,2.5c0.2,0.9,0.4,0.6,0.4,0.6
	c0.5-1.7,1.8-3,3.4-3.6c0.8-0.3,0.9-0.7,0.9-0.7s0.7-2.7,0.3-2.7c-0.8,0.2-1.6,0.6-2.4,1c-0.5,0.3-1.8,0.6-2.1,0.1
	c-0.7-1.2,0.8-1.2,1.1-1.2s0.8,0,2-0.9c0.5-0.4,0.4-0.8,0.1-1.2C-10.7,344.3-11.9,343.9-12.9,344.2 M-18.1,344.7
	c2.1-1.6,4.2-3,6.5-4.3c0.8-0.5,1.2-1.4,1.1-2.4c-3,1.2-5.7,2.9-7.9,5.1C-19.4,343.9-18.3,344.7-18.1,344.7 M-69.9,354.6
	c4-1.7,7.3-4.5,9.8-8.1l0.9,0.8c0,0,1.2-0.6,1-3.6l-0.7-0.9c0,0,0.8-2.5-0.5-3.7c-1.3-1.2-3.1,0.5-3.5,1.2s-1.6,3,1.3,5.5
	c0,0-2.5,4.7-10.4,8.6c-0.1,0.1-0.3,0.2-0.3,0.4C-72.3,355.1-71.7,355.4-69.9,354.6 M-61.2,341c0.8-0.7,1.9,1,0.3,1.8
	C-61.2,342.9-62,341.7-61.2,341 M-8.1,363.8l4.4-4.8c0,0,0.4,13,0,16.1s1.8-1.3,2-4.9c0.3-3.6,0.1-13.6,0.1-13.6s11.2-11.9,12.6-18
	c0.3-1.5-0.6-1.1-1-0.6s-9,12.9-12,15.2l-0.8-6.3c0,0,0.3-0.8,0.7-0.5s0.6,0.6,0.9,0.5s0.2-0.6,0.2-0.6l-2.8-7.5
	c0,0-0.3-0.6-0.6-0.2c-0.5,0.9-0.9,1.9-1.3,2.9c0,0,2.1,8.7,1.6,14l-5.9,6.2L-23,347.8c0,0-0.5-0.9,0.3-1s0.9-0.6,0.3-1
	c-0.6-0.4-6.7-4.6-6.7-4.6l0.3,4.3l17,18.6c-1.9,1.6-2.9,3.9-3,6.3c0.1,3.8,1.3,4.2,2.9,4.3c1.6,0.1,5-1.1,5.2-5.6
	C-6.5,365.6-8.1,363.8-8.1,363.8 M-10.5,370.2c-1.6,0.2-2.2-0.2-2.2-0.8s0.9-3.1,2.7-3.7c0,0,1.5,1.3,1.4,2
	C-8.5,368.9-9.3,370-10.5,370.2 M-19.4,369.1c-0.1-4.7-5-5.2-5-5.2c0.5-0.4,1.5-2.4,1.8-5.7c0.3-3.7-1.6-6.8-2.1-6.8
	s-2.3,5.6-2.7,8.1c-0.4,2.5-1.4,2.8-1.4,2.8c-1,0.9-2.9,1.7-8.6,2.5s-9.1-2.1-10.2-4.9s-2.9-20.9-3.1-22c-0.2-1.1-0.6-0.7-0.9-0.2
	c-0.4,2.8-0.5,5.7-0.4,8.5c0.1,3.4,1.2,7.5,1.4,10.3c0.3,4.2-2.8,6.6-4.1,6.8s-1.4,0.9-1.4,0.9s-0.6,3.1-0.4,3.3
	c0.2,0.2,4.3,0.1,4.8,0.2c0.5,0.1,1.8,0.2,1.4,1c-0.2,0.5-2.9,4-9,5.2c-1.9,0.4-4,0.4-5.9,0c-1.5-0.4-2.9-1.4-3.7-2.7
	c-2.8-4.8,0.7-9.8,0.4-10.3c-0.8-1.4-3.6,4.2-3.5,7c0,4,2.9,7.4,4.4,8.1c3.8,1.8,8.2,1.8,11.9-0.1c6.4-3,8.2-8,7.9-9.5
	c-0.3-1-1.1-1.8-2.2-2c-0.5-0.1-0.5-0.6-0.3-1s0.6-0.6,1.3,0c1,0.9,3.1,4.7,9.3,5.1c2.9,0,5.8-0.4,8.6-1.4c0.5-0.2,2.6-1.5,2.9-0.1
	c0.4,2,0.9,5.6,5.2,6.3C-22.4,373.6-19.3,374-19.4,369.1 M-24.9,357.5c0.4-0.1,1.1,1,0.6,2.2s-0.9,1.9-1.7,1.3
	S-25.7,357.8-24.9,357.5 M-24.4,369.5c-0.6-0.4-1.6-1.3-1.1-2c0.3-0.4,3.1,0,3.5,1.6C-21.8,369.9-23.8,369.8-24.4,369.5
	 M-43.9,374.1c0.8-0.5,1.2-1.4,1.1-2.4c-2.9,1.2-5.6,2.9-7.9,5.1c-0.9,0.8,0.3,1.7,0.5,1.6C-48.2,376.9-46.1,375.4-43.9,374.1"/>
<g>
	<path class="st0" d="M-45.9,381.5h4.4v32.7h-4L-67.3,389v25.2h-4.4v-32.7h3.8l22,25.4L-45.9,381.5z"/>
	<path class="st0" d="M-23.4,414.2h-11.1v-32.7h8.6c2.2-0.1,4.3,0.3,6.3,1.1c2.9,1.3,4.8,4.2,4.7,7.4c0,3.2-1.7,5.5-5,6.9
		c2.2,0.4,4.2,1.4,5.7,3c1.4,1.5,2.2,3.4,2.1,5.4c0,1.6-0.4,3.1-1.3,4.5c-1,1.4-2.3,2.5-3.8,3.2C-19.1,413.9-21.2,414.3-23.4,414.2z
		 M-25.7,385.7h-4v9.8h3.1c2.5,0,4.3-0.5,5.3-1.4c1-0.9,1.6-2.3,1.6-3.7C-19.8,387.3-21.7,385.7-25.7,385.7L-25.7,385.7z
		 M-25.4,399.7h-4.4V410h4.6c1.8,0.1,3.5-0.1,5.2-0.6c0.9-0.4,1.7-1,2.2-1.9c0.5-0.8,0.8-1.7,0.8-2.7c0-1-0.3-1.9-0.9-2.7
		c-0.6-0.9-1.5-1.5-2.5-1.9C-21.9,399.8-23.7,399.6-25.4,399.7L-25.4,399.7z"/>
	<path class="st0" d="M-7.5,381.5h18.5v4.2H-2.8v10h13.4v4.2H-2.8V410h14.3v4.2h-19L-7.5,381.5z"/>
</g>
<g class="st1">
	<path class="st2" d="M-73.5,436.6h-8.2c0,1,0.4,2,1.1,2.7c0.7,0.7,1.7,1,2.7,1c1.5,0,3-0.5,4.2-1.4v2.3c-0.7,0.4-1.4,0.8-2.1,1
		c-0.8,0.2-1.6,0.3-2.5,0.3c-1.1,0.1-2.2-0.2-3.1-0.8c-0.8-0.5-1.5-1.3-1.9-2.2c-0.5-1-0.7-2-0.7-3.1c-0.1-1.6,0.5-3.1,1.5-4.3
		c1-1.1,2.4-1.7,3.9-1.7c1.4-0.1,2.8,0.5,3.7,1.6c1,1.2,1.5,2.8,1.4,4.4V436.6z M-81.7,435.2h5.9c0-0.8-0.3-1.5-0.8-2.1
		c-0.5-0.5-1.3-0.8-2-0.8c-0.7,0-1.5,0.3-2,0.8C-81.2,433.6-81.6,434.4-81.7,435.2z"/>
	<path class="st2" d="M-72.4,435.2h6.4v2.5h-6.3L-72.4,435.2z"/>
	<path class="st2" d="M-64.7,441.4v-2.5c0.6,0.4,1.3,0.8,2,1.1c0.5,0.3,1.1,0.4,1.7,0.4c0.4,0,0.9-0.1,1.3-0.4
		c0.3-0.2,0.5-0.5,0.5-0.8c0-0.3-0.1-0.6-0.3-0.9c-0.4-0.4-0.9-0.7-1.5-1c-1.1-0.5-2.1-1.3-2.9-2.1c-0.4-0.5-0.7-1.2-0.7-1.9
		c0-0.9,0.3-1.7,1-2.2c0.8-0.6,1.7-0.9,2.7-0.9c1.2,0,2.5,0.4,3.5,1v2.3c-1-0.7-2.2-1.1-3.4-1.3c-0.4,0-0.8,0.1-1.1,0.3
		c-0.3,0.2-0.4,0.4-0.4,0.8c0,0.3,0.2,0.6,0.4,0.8c0.4,0.3,0.8,0.6,1.3,0.9l0.8,0.5c1.9,1.1,2.9,2.3,2.9,3.7c0,0.9-0.4,1.8-1.1,2.4
		c-0.8,0.6-1.8,1-2.9,0.9c-0.6,0-1.3-0.1-1.9-0.2C-63.4,442-64,441.7-64.7,441.4z"/>
	<path class="st2" d="M-54.9,424.4h2.3v7.6c0.9-1.1,2.2-1.8,3.6-1.8c0.7,0,1.5,0.2,2.1,0.6c0.6,0.4,1.1,0.9,1.4,1.6
		c0.4,1,0.5,2,0.5,3.1v6.7h-2.3V435c0-0.7-0.2-1.5-0.6-2.1c-0.4-0.5-1-0.8-1.7-0.8c-0.5,0-1,0.1-1.4,0.4c-0.6,0.4-1.1,0.8-1.5,1.3
		v8.4h-2.3L-54.9,424.4z"/>
	<path class="st2" d="M-37,430.5c1.7-0.1,3.3,0.6,4.4,1.7c1.2,1.1,1.8,2.7,1.8,4.3c0,1.6-0.6,3.1-1.8,4.2c-1.2,1.1-2.9,1.7-4.5,1.7
		c-1.6,0-3.2-0.6-4.4-1.7c-2.4-2.3-2.4-6.1,0-8.5c0,0,0,0,0,0C-40.3,431-38.7,430.4-37,430.5z M-37.1,432.6c-1,0-2,0.4-2.7,1.1
		c-0.7,0.7-1.1,1.8-1.1,2.8c0,1,0.4,2,1.1,2.7c0.8,0.7,1.8,1.1,2.8,1.1c1,0,2-0.3,2.8-1.1c1.5-1.5,1.5-4,0-5.5
		C-35,432.9-36.1,432.5-37.1,432.6L-37.1,432.6z"/>
	<path class="st2" d="M-29.2,448.2v-17.7h4.1c1.8-0.1,3.5,0.4,4.9,1.5c1.2,1.1,1.8,2.7,1.7,4.3c0.1,1.6-0.5,3.2-1.6,4.3
		c-1.1,1.1-2.6,1.7-4.2,1.7c-0.8,0-1.7-0.2-2.5-0.5v6.3L-29.2,448.2z M-25.2,432.7h-1.6v7.2c0.7,0.4,1.5,0.6,2.2,0.5
		c1,0,2-0.4,2.7-1.1c0.7-0.8,1.1-1.9,1-2.9c0-0.7-0.2-1.4-0.5-2c-0.3-0.6-0.8-1-1.3-1.3C-23.5,432.8-24.3,432.6-25.2,432.7
		L-25.2,432.7z"/>
	<path class="st2" d="M-16.9,448.2v-17.7h4.1c1.8-0.1,3.5,0.4,4.8,1.5c1.2,1.1,1.8,2.7,1.7,4.3c0.1,1.6-0.5,3.2-1.6,4.3
		c-1.1,1.1-2.6,1.7-4.2,1.7c-0.8,0-1.7-0.2-2.5-0.5v6.3L-16.9,448.2z M-12.9,432.7h-1.6v7.2c0.7,0.4,1.5,0.6,2.2,0.5
		c1,0,2-0.4,2.7-1.1c0.7-0.8,1.1-1.9,1-2.9c0-0.7-0.2-1.4-0.5-2c-0.3-0.6-0.8-1-1.3-1.3C-11.2,432.8-12.1,432.6-12.9,432.7z"/>
	<path class="st2" d="M-3.3,425.6c0.4,0,0.7,0.1,1,0.4c0.3,0.3,0.4,0.6,0.4,1c0,0.8-0.6,1.4-1.4,1.4c-0.4,0-0.7-0.2-0.9-0.4
		c-0.3-0.3-0.4-0.6-0.4-1c0-0.4,0.1-0.7,0.4-1C-4,425.7-3.6,425.6-3.3,425.6z M-4.4,430.5h2.3v11.7h-2.3V430.5z"/>
	<path class="st2" d="M2.8,430.5v1.5c0.9-1.1,2.2-1.7,3.5-1.7c0.7,0,1.4,0.2,2,0.6c0.6,0.4,1.1,0.9,1.5,1.5c0.4,1,0.5,2.1,0.5,3.1
		v6.7H7.9v-6.7c0.1-0.9-0.1-1.8-0.6-2.6c-0.4-0.5-1.1-0.8-1.8-0.8c-1.2,0-2.2,0.6-2.8,1.6v8.4H0.4v-11.7H2.8z"/>
	<path class="st2" d="M12.1,434.5c-0.1-1.2,0.4-2.3,1.4-3c1.1-0.8,2.4-1.2,3.7-1.1H22v1.8h-2.4c0.4,0.4,0.7,0.8,1,1.3
		c0.2,0.4,0.3,0.9,0.3,1.3c0,0.6-0.2,1.3-0.5,1.8c-0.3,0.6-0.8,1-1.3,1.4c-0.8,0.4-1.8,0.7-2.7,0.8c-0.9,0.1-1.3,0.4-1.3,0.9
		c0,0.3,0.2,0.6,0.5,0.7c0.6,0.2,1.2,0.4,1.8,0.5c0.9,0.2,1.9,0.4,2.8,0.7c0.4,0.2,0.8,0.4,1.1,0.8c0.6,0.6,0.9,1.3,0.8,2.1
		c0,1.1-0.5,2.1-1.5,2.7c-1.2,0.7-2.6,1.1-4,1c-1.4,0.1-2.8-0.3-4-1c-0.9-0.6-1.5-1.6-1.5-2.7c0-1.6,1-2.6,2.9-3.1
		c-0.8-0.5-1.2-1-1.2-1.5c0-0.4,0.2-0.8,0.5-1c0.4-0.3,0.9-0.6,1.4-0.7C13.1,437.7,12.1,436.2,12.1,434.5z M15.9,442.8
		c-0.7,0-1.3,0.1-1.9,0.5c-0.5,0.3-0.7,0.7-0.8,1.3c0,1.2,1.1,1.8,3.3,1.8c0.8,0,1.6-0.1,2.4-0.5c0.5-0.2,0.8-0.7,0.9-1.3
		c0-0.5-0.4-1-1.1-1.3C17.8,442.9,16.9,442.7,15.9,442.8z M16.4,432.5c-0.6,0-1.2,0.2-1.6,0.6c-0.4,0.4-0.7,0.9-0.7,1.5
		c0,0.6,0.2,1.1,0.6,1.5c0.9,0.8,2.3,0.8,3.3,0c0.4-0.4,0.7-0.9,0.7-1.5c0-0.6-0.2-1.1-0.7-1.5C17.7,432.7,17.1,432.5,16.4,432.5z"
		/>
</g>
<g>
	<g>
		<defs>
			<path id="SVGID_1_" d="M-171.6,365.2c-0.2,1.5-0.4,2.9-0.4,4.4c0.3,15.2,12.9,27.3,28.1,27c14.8-0.3,26.7-12.2,27-27
				c0-1.5-0.1-3-0.4-4.4H-171.6z"/>
		</defs>
		<clipPath id="SVGID_2_">
			<use xlink:href="#SVGID_1_"  style="overflow:visible;"/>
		</clipPath>
		<g class="st3">
			
				<radialGradient id="SVGID_3_" cx="-1029.5842" cy="1126.5442" r="1.89" gradientTransform="matrix(92.2 0 0 92.2 94703.6406 -103510.7578)" gradientUnits="userSpaceOnUse">
				<stop  offset="0" style="stop-color:#FCEE23"/>
				<stop  offset="1.000000e-002" style="stop-color:#FCEE23"/>
				<stop  offset="0.11" style="stop-color:#FCE923"/>
				<stop  offset="0.24" style="stop-color:#FBDB23"/>
				<stop  offset="0.37" style="stop-color:#F9C423"/>
				<stop  offset="0.51" style="stop-color:#F6A324"/>
				<stop  offset="0.65" style="stop-color:#F37924"/>
				<stop  offset="0.73" style="stop-color:#F16024"/>
				<stop  offset="1" style="stop-color:#F16024"/>
			</radialGradient>
			<rect x="-171.9" y="365.2" class="st4" width="55.1" height="32"/>
		</g>
	</g>
	<g>
		<defs>
			<path id="SVGID_4_" d="M-171.7,406.3v38.3c0,9.4,6.8,11.2,10.4,11.4h2.1v-49.7H-171.7z M-150.6,456h12.5v-49.7h-12.5V456z
				 M-129.5,406.3V456h2.1c3.4-0.2,9.8-1.8,10.3-10.2v-39.5H-129.5z"/>
		</defs>
		<clipPath id="SVGID_5_">
			<use xlink:href="#SVGID_4_"  style="overflow:visible;"/>
		</clipPath>
		<g class="st5">
			
				<radialGradient id="SVGID_6_" cx="-1028.4009" cy="1129.1699" r="1.89" gradientTransform="matrix(76.89 0 0 76.89 78876.3828 -86438.25)" gradientUnits="userSpaceOnUse">
				<stop  offset="0" style="stop-color:#FCEE23"/>
				<stop  offset="1.000000e-002" style="stop-color:#FCEE23"/>
				<stop  offset="0.48" style="stop-color:#F69F24"/>
				<stop  offset="0.88" style="stop-color:#F16024"/>
				<stop  offset="1" style="stop-color:#F16024"/>
			</radialGradient>
			<rect x="-171.7" y="406.3" class="st6" width="54.7" height="49.7"/>
		</g>
	</g>
	<path class="st0" d="M-109.6,338.2h-69.6c-9.3,0-16.8,7.5-16.8,16.8c0,0,0,0,0,0v70.7c0,8.6,5.2,15.7,13.6,16.7v-90.4h76.1v90.4
		c8.3-1,13.5-8.1,13.5-16.7V355C-92.7,345.7-100.3,338.2-109.6,338.2C-109.5,338.2-109.6,338.2-109.6,338.2"/>
</g>
<g class="st1">
	<path class="st2" d="M-73.8,436.9h-7.6c0.1,1,0.4,1.9,1,2.5s1.5,0.9,2.5,0.9c1.4,0,2.7-0.4,3.9-1.3v2.1c-0.7,0.4-1.3,0.8-2,0.9
		s-1.4,0.3-2.3,0.3c-1.2,0-2.1-0.2-2.9-0.7s-1.3-1.2-1.8-2s-0.7-1.8-0.7-2.9c0-1.6,0.5-3,1.4-4s2.1-1.5,3.6-1.5
		c1.4,0,2.6,0.5,3.4,1.5s1.3,2.3,1.3,4V436.9z M-81.3,435.6h5.4c-0.1-0.9-0.3-1.5-0.8-2s-1.1-0.7-1.8-0.7s-1.4,0.2-1.9,0.7
		S-81.2,434.8-81.3,435.6z"/>
	<path class="st2" d="M-69.3,435.7h5.8v2.3h-5.8V435.7z"/>
	<path class="st2" d="M-58.4,425.7h2.1v6.4c0.9-0.7,1.9-1,3-1c1.4,0,2.5,0.5,3.4,1.5s1.3,2.4,1.3,4c0,1.7-0.5,3.1-1.6,4.1
		s-2.4,1.5-4.2,1.5c-0.7,0-1.4-0.1-2.2-0.2s-1.4-0.3-1.8-0.6V425.7z M-56.3,434.2v5.8c0.7,0.2,1.5,0.3,2.2,0.3c0.9,0,1.7-0.3,2.3-1
		s0.9-1.5,0.9-2.6c0-1.1-0.3-1.9-0.8-2.6s-1.3-1-2.2-1C-54.6,433.1-55.5,433.4-56.3,434.2z"/>
	<path class="st2" d="M-41.3,431.3v2.5l0.1-0.2c1-1.7,2.1-2.5,3.1-2.5c0.8,0,1.6,0.4,2.5,1.2l-1.1,1.9c-0.7-0.7-1.4-1.1-2.1-1.1
		c-0.7,0-1.3,0.3-1.8,1s-0.8,1.4-0.8,2.3v5.6h-2.1v-10.8H-41.3z"/>
	<path class="st2" d="M-24.6,435.6v4.6c0,0.4,0.1,0.6,0.4,0.6c0.3,0,0.7-0.2,1.2-0.6v1.3c-0.5,0.3-0.9,0.5-1.2,0.6s-0.6,0.2-0.9,0.2
		c-0.9,0-1.5-0.4-1.6-1.1c-0.9,0.7-1.9,1.1-2.9,1.1c-0.8,0-1.4-0.2-1.9-0.7s-0.8-1.1-0.8-1.9c0-0.7,0.2-1.3,0.7-1.8s1.2-1,2.1-1.3
		l2.7-0.9v-0.6c0-1.3-0.6-1.9-1.9-1.9c-1.2,0-2.3,0.6-3.4,1.8v-2.3c0.8-1,2-1.5,3.6-1.5c1.2,0,2.1,0.3,2.8,0.9
		c0.2,0.2,0.4,0.5,0.6,0.8s0.3,0.6,0.4,1S-24.6,434.7-24.6,435.6z M-26.7,440v-3.2l-1.4,0.6c-0.7,0.3-1.2,0.6-1.5,0.9
		s-0.5,0.7-0.5,1.1c0,0.4,0.1,0.8,0.4,1.1s0.7,0.4,1.1,0.4C-27.9,440.8-27.3,440.5-26.7,440z"/>
	<path class="st2" d="M-16.3,431.3v1.4c1-1.1,2-1.6,3.2-1.6c0.7,0,1.3,0.2,1.9,0.5s1,0.8,1.3,1.4s0.5,1.6,0.5,2.9v6.2h-2.1V436
		c0-1.1-0.2-1.9-0.5-2.4s-0.9-0.7-1.7-0.7c-1,0-1.9,0.5-2.6,1.5v7.7h-2.2v-10.8H-16.3z"/>
	<path class="st2" d="M4.4,439.6v2.1c-1.1,0.4-2.1,0.6-3.1,0.6c-1.7,0-3-0.5-4-1.5s-1.5-2.3-1.5-4c0-1.7,0.5-3.1,1.5-4.1
		s2.3-1.6,3.9-1.6c0.6,0,1.1,0.1,1.5,0.2s1,0.3,1.6,0.6v2.3c-1.1-0.7-2.1-1-3-1c-1,0-1.8,0.3-2.4,1s-0.9,1.5-0.9,2.6
		c0,1.1,0.3,2,1,2.6s1.6,1,2.7,1C2.4,440.3,3.3,440.1,4.4,439.6z"/>
	<path class="st2" d="M9.5,425.7h2.1v7c0.9-1.1,2-1.6,3.3-1.6c0.7,0,1.4,0.2,1.9,0.5s1,0.9,1.3,1.5s0.4,1.6,0.4,2.8v6.1h-2.1v-6.7
		c0-0.8-0.2-1.4-0.6-1.9s-0.9-0.7-1.5-0.7c-0.5,0-0.9,0.1-1.3,0.4s-0.9,0.6-1.4,1.2v7.7H9.5V425.7z"/>
</g>
<path class="st7" d="M-82.4,442.2v-16.7h5.3c1.4-0.1,2.7,0.4,3.8,1.3c1,0.9,1.5,2.2,1.4,3.5c0,0.9-0.2,1.8-0.7,2.6
	c-0.5,0.7-1.2,1.3-2,1.6c-1.2,0.4-2.4,0.6-3.6,0.5H-80v7.2H-82.4z M-77.5,427.6H-80v5.2h2.6c0.8,0.1,1.6-0.2,2.2-0.7
	c0.6-0.5,0.9-1.2,0.8-2C-74.3,428.5-75.4,427.6-77.5,427.6z"/>
<path class="st7" d="M-71.3,425.5h2.2v7.1c0.8-1.1,2-1.7,3.4-1.7c0.7,0,1.4,0.2,2,0.5c0.6,0.4,1,0.9,1.3,1.5
	c0.3,0.9,0.5,1.9,0.4,2.9v6.3h-2.2v-6.8c0-0.7-0.2-1.4-0.6-1.9c-0.4-0.5-1-0.8-1.6-0.7c-0.5,0-0.9,0.1-1.3,0.4
	c-0.5,0.3-1,0.8-1.4,1.2v7.9h-2.2L-71.3,425.5z"/>
<path class="st7" d="M-55.1,431.2c1.6,0,3.1,0.5,4.2,1.6c1.1,1.1,1.7,2.5,1.6,4.1c0,1.5-0.6,2.9-1.7,3.9c-1.1,1.1-2.7,1.6-4.2,1.6
	c-1.5,0-3-0.5-4.1-1.6c-2.2-2.2-2.2-5.7-0.1-7.9c0,0,0,0,0.1-0.1C-58.2,431.7-56.6,431.1-55.1,431.2z M-55.2,433.2
	c-1,0-1.9,0.3-2.6,1c-0.7,0.7-1,1.6-1,2.6c0,1,0.3,1.9,1,2.6c0.7,0.7,1.7,1,2.6,1c1,0,1.9-0.3,2.6-1c1.4-1.4,1.4-3.7,0-5.2
	C-53.2,433.5-54.2,433.1-55.2,433.2L-55.2,433.2z"/>
<path class="st7" d="M-45.9,431.2v1.4c0.8-1,2-1.6,3.3-1.6c0.7,0,1.3,0.2,1.9,0.5c0.6,0.3,1,0.9,1.3,1.5c0.4,0.9,0.5,1.9,0.5,2.9
	v6.3H-41v-6.3c0.1-0.8-0.1-1.7-0.5-2.4c-0.4-0.5-1.1-0.8-1.7-0.7c-1.1,0-2.1,0.6-2.6,1.5v7.8h-2.2v-11L-45.9,431.2z"/>
<path class="st7" d="M-27.7,436.9h-7.7c0,0.9,0.4,1.8,1.1,2.5c0.7,0.6,1.6,1,2.5,0.9c1.4,0,2.9-0.5,4-1.3v2.1c-0.6,0.4-1.3,0.8-2,1
	c-0.8,0.2-1.5,0.3-2.3,0.3c-1,0-2.1-0.2-2.9-0.8c-0.8-0.5-1.4-1.2-1.8-2c-0.5-0.9-0.7-1.9-0.7-2.9c-0.1-1.5,0.4-2.9,1.4-4.1
	c0.9-1,2.3-1.6,3.7-1.6c1.3-0.1,2.6,0.5,3.5,1.5c0.9,1.2,1.4,2.6,1.3,4.1L-27.7,436.9z M-35.4,435.6h5.5c0-0.7-0.3-1.5-0.8-2
	c-0.5-0.5-1.2-0.7-1.9-0.7c-0.7,0-1.4,0.2-1.9,0.7C-34.9,434.1-35.3,434.8-35.4,435.6z"/>
<path class="st7" d="M-8.4,438.4v2.6c-1.9,1-4,1.5-6.1,1.4c-1.7,0.1-3.3-0.3-4.7-1.1c-2.6-1.5-4.2-4.3-4.2-7.4
	c0-2.3,0.9-4.5,2.6-6.1c1.7-1.6,4-2.5,6.4-2.5c2,0.1,4,0.5,5.8,1.4v2.6c-1.7-1-3.7-1.6-5.7-1.7c-1.7-0.1-3.5,0.6-4.7,1.7
	c-2.5,2.5-2.5,6.5,0,9c1.3,1.2,3,1.8,4.8,1.8C-12.2,440.1-10.1,439.5-8.4,438.4z"/>
<path class="st7" d="M-0.1,435.6v4.7c0,0.4,0.1,0.6,0.4,0.6c0.5-0.1,0.9-0.3,1.2-0.6v1.3c-0.4,0.2-0.8,0.5-1.2,0.6
	c-0.3,0.1-0.6,0.2-0.9,0.2c-0.9,0-1.5-0.4-1.6-1.1c-0.8,0.7-1.9,1.1-2.9,1.1c-0.7,0-1.4-0.3-1.9-0.8c-0.5-0.5-0.8-1.2-0.8-1.9
	c0-0.7,0.3-1.4,0.8-1.9c0.6-0.6,1.3-1,2.1-1.3l2.8-1V435c0.1-1-0.5-1.9-1.5-2c-0.2,0-0.4,0-0.5,0c-1.4,0.1-2.6,0.8-3.5,1.8v-2.3
	c0.9-1,2.3-1.6,3.7-1.5c1-0.1,2,0.3,2.9,0.9c0.3,0.2,0.5,0.5,0.6,0.8c0.2,0.3,0.3,0.6,0.4,1C-0.1,434.3,0,435-0.1,435.6z M-2.2,440
	v-3.3l-1.4,0.6c-0.6,0.2-1.1,0.5-1.6,0.9c-0.6,0.6-0.6,1.6,0,2.2c0.3,0.3,0.7,0.4,1.1,0.4C-3.4,440.8-2.7,440.5-2.2,440z"/>
<path class="st7" d="M1.7,441.4V439c0.6,0.4,1.2,0.7,1.9,1c0.5,0.2,1.1,0.4,1.6,0.4c0.4,0,0.8-0.1,1.2-0.3c0.3-0.2,0.5-0.5,0.5-0.8
	c0-0.3-0.1-0.6-0.3-0.8c-0.4-0.4-0.9-0.7-1.4-0.9c-1-0.5-2-1.2-2.8-2c-0.4-0.5-0.6-1.1-0.6-1.8c0-0.8,0.4-1.6,1-2.1
	c0.7-0.6,1.6-0.8,2.5-0.8c1.2,0,2.3,0.3,3.3,0.9v2.1c-0.9-0.7-2-1-3.2-1.2c-0.4,0-0.7,0.1-1,0.3c-0.2,0.1-0.4,0.4-0.4,0.7
	c0,0.3,0.1,0.5,0.4,0.7c0.4,0.3,0.8,0.6,1.2,0.8l0.8,0.4c1.8,1,2.8,2.2,2.8,3.4c0,0.9-0.4,1.7-1.1,2.2c-0.8,0.6-1.7,0.9-2.7,0.9
	c-0.6,0-1.2-0.1-1.7-0.2C3,441.9,2.3,441.7,1.7,441.4z"/>
<path class="st7" d="M10.4,425.5h2.2v7.1c0.8-1.1,2.1-1.7,3.4-1.7c0.7,0,1.4,0.2,2,0.5c0.6,0.4,1,0.9,1.3,1.5
	c0.3,0.9,0.5,1.9,0.4,2.9v6.3h-2.2v-6.8c0-0.7-0.2-1.4-0.6-1.9c-0.4-0.5-0.9-0.8-1.6-0.7c-0.5,0-0.9,0.1-1.4,0.4
	c-0.5,0.3-1,0.8-1.4,1.2v7.9h-2.2L10.4,425.5z"/>
</svg>
