<?xml version="1.0" encoding="utf-8"?>
<!-- Generator: Adobe Illustrator 19.1.0, SVG Export Plug-In . SVG Version: 6.00 Build 0)  -->
<svg version="1.1" id="Layer_1" xmlns="http://www.w3.org/2000/svg" xmlns:xlink="http://www.w3.org/1999/xlink" x="0px" y="0px"
	 width="43.5px" height="43.6px" viewBox="-283 375.4 43.5 43.6" style="enable-background:new -283 375.4 43.5 43.6;"
	 xml:space="preserve">
<style type="text/css">
	.st0{fill:#006643;}
</style>
<title>Asset 11</title>
<g id="Layer_2">
	<g id="Layer_1-2">
		<path class="st0" d="M-283,409.1c1.4-1.8,3.2-1.9,5.3-1.4c3.3,0.8,6.7,1.3,10.1,1.9c0.9,0.1,1.6,0.6,1.9,1.4
			c0.1,0.3,0.3,0.7,0.5,1c0.5,0.9,1.6,1.3,2.5,0.8c2.1-0.7,4.1-1.4,6.1-2.3l-3.1,0.6c-0.8,0.1-1.6,0.3-2.4,0.5
			c-1.3,0.3-2.6-0.5-2.9-1.8c0-0.1,0-0.1,0-0.2c0-0.3,0.1-0.7,0.4-0.9c3.3-3.1,7.5-5.2,12-6c0.5-0.1,1-0.1,1.5,0
			c3.8,1.2,7.6,2.4,11.6,3.6l-2.8,6.5c-0.2,0-0.3,0.1-0.4,0c-2.4-1-5.1-0.7-7.3,0.7c-3.5,2-7.1,3.6-10.7,5.3c-0.1,0-0.2,0.1-0.2,0.2
			h-1c-3.4-1.4-6.8-2.8-10.2-4.4c-3.6-1.6-7.3-3.4-10.9-5V409.1z"/>
		<path class="st0" d="M-280.4,397.1l8-13.8l23.6,13.6c-0.8,1.3-1.5,2.6-2.2,3.9c-0.1,0.2-0.3,0.3-0.6,0.3c-4.3,0.5-8.4,2.3-11.7,5
			c-0.3,0.2-0.8,0.3-1.1,0.1C-269.8,403.2-275,400.2-280.4,397.1z"/>
		<path class="st0" d="M-273.5,378.3l-7.4,12.8l-1.6-0.9l8.5-14.8l22.2,12.8l-1.1,1.9L-273.5,378.3z"/>
		<path class="st0" d="M-251,392.1l-1.1,1.9l-20.6-11.9l-7.4,12.8l-1.6-0.9l8.5-14.8L-251,392.1z"/>
	</g>
</g>
</svg>
