<?xml version="1.0" encoding="utf-8"?>
<!-- Generator: Adobe Illustrator 27.3.1, SVG Export Plug-In . SVG Version: 6.00 Build 0)  -->
<svg version="1.1" id="Layer_1" xmlns="http://www.w3.org/2000/svg" xmlns:xlink="http://www.w3.org/1999/xlink" x="0px" y="0px"
	 viewBox="0 0 50 50" style="enable-background:new 0 0 50 50;" xml:space="preserve">
<style type="text/css">
	.st0{fill:#FFA100;}
	.st1{fill:#FFFFFF;}
</style>
<path class="st0" d="M46,50H4c-2.2,0-4-1.8-4-4V4c0-2.2,1.8-4,4-4h42c2.2,0,4,1.8,4,4v42C50,48.2,48.2,50,46,50z"/>
<g>
	<path class="st1" d="M22.4,10c0.4,0,0.9,0,1.3,0.1c0.3,0.1,0.6,0.2,0.9,0.5c0.2,0.2,0.3,0.4,0.4,0.7c0.1,0.2,0.2,0.5,0.2,0.7
		c0,0.8-0.1,1.7-0.4,2.4c-0.4,1.1-0.8,2.1-1.4,3c-0.6,1.1-1.3,2.1-2.1,3.2c-0.8,1-1.6,2-2.5,2.9c-0.8,0.8-1.7,1.6-2.7,2.2
		c-0.8,0.5-1.6,0.9-2.6,1.1c-2,0.3-3.5,0-4.4-0.9c-0.2-0.2-0.3-0.4-0.5-0.6c-3,9.5-4.9,14.7-6,15.7c-0.1,0.1-0.3,0.2-0.4,0.2
		s-0.1,0-0.2,0S1.9,41.1,1.9,41s-0.1-0.2-0.1-0.3c0-0.2,0-0.4,0-0.6c0.1-0.3,0.1-0.7,0.2-1c0.6-2.3,1.4-4.6,2.3-6.8
		c1.1-2.8,2.4-5.6,3.9-8.3c-0.1-0.7-0.2-1.4-0.1-2.2c0.1-0.7,0.2-1.1,0.4-1.2c0.2-0.1,0.4-0.1,0.5,0.1c0.1,0.3,0.2,0.5,0.1,0.8
		c-0.3,0.5-0.5,1.1-0.5,1.7c0-0.1,0.1-0.1,0.1-0.2s0.1-0.1,0.1-0.2c0.7-2.4,1.6-5.4,2.7-9.1c0.7-2.4,1.2-3.9,1.4-4.4
		c0.2-0.5,0.4-0.7,0.5-0.5s0.1,0.6-0.1,1.1c-0.1,0.3-0.5,1.6-1.2,4c-0.9,2.9-1.5,5.3-2.1,7c0.7-1.2,1.5-2.3,2.2-3.3s1.5-2,2.4-2.9
		c0.8-0.9,1.6-1.7,2.5-2.4c0.8-0.7,1.7-1.2,2.6-1.6C20.6,10.3,21.5,10,22.4,10z M2.4,40.5c1-1.1,2.9-6.1,5.7-15.1
		c-1.6,3-2.9,6.1-4.1,9.3C2.9,37.7,2.4,39.7,2.4,40.5z M13.5,26.1c0.9-0.2,1.7-0.5,2.4-1.1c0.9-0.6,1.8-1.3,2.6-2.1
		c0.9-0.9,1.7-1.8,2.4-2.8c0.7-1,1.4-2,2-3c0.5-0.9,1-1.9,1.4-2.9c0.3-0.7,0.4-1.5,0.4-2.3c-0.1-1.1-0.9-1.6-2.2-1.5
		c-1,0.1-2,0.4-3,0.9s-1.9,1.1-2.8,1.9s-1.8,1.7-2.6,2.7c-0.8,1-1.6,2-2.3,3.1c-0.7,1-1.3,2.1-2,3.2c-0.1,0.2-0.3,0.5-0.4,0.8
		c-0.1,0.4-0.3,0.9-0.5,1.5c0.1,0.4,0.3,0.7,0.6,0.9C10.3,26.2,11.6,26.5,13.5,26.1z"/>
	<path class="st1" d="M21.4,18.9c-1,2.7-1.8,4.7-2.3,6.1c-0.6,1.3-1,2.5-1.4,3.5s-0.5,1.6-0.5,1.6c-0.1,0.3-0.1,0.5-0.2,0.9
		c0,0.3,0,0.4,0.1,0.4s0.1,0,0.3,0c0.4-0.3,0.8-0.7,1.2-1c0.9-0.9,1.6-1.8,2.3-2.7c0.1-0.1,0.1-0.1,0.2-0.1s0.1,0,0.2,0.1
		s0.1,0.1,0.1,0.2s0,0.2-0.1,0.2c-2.1,2.6-3.5,4-4.1,4c-0.1,0-0.2,0-0.3-0.1c-0.2-0.1-0.3-0.4-0.3-0.6s0-0.5,0-0.7
		c0.1-0.2,0.1-0.4,0.2-0.6c3.1-10.6,5-16.3,5.6-17.4s0.9-0.9,0.8,0.4C22.9,14.1,22.4,16.1,21.4,18.9z"/>
	<path class="st1" d="M26.5,27.5c0.1,0,0.1,0,0.2,0.1c0,0.1,0.1,0.1,0.1,0.2s0,0.2-0.1,0.2c-1.3,1.1-2.2,1.7-2.8,1.7
		c-0.1,0-0.3,0-0.4-0.2c-0.4-0.3-0.4-0.9-0.1-1.8c-0.1,0.1-0.1,0.2-0.2,0.2c-0.3,0.4-0.6,0.7-0.9,0.9C22,29,21.7,29.1,21.4,29
		c-0.4-0.2-0.5-0.6-0.4-1.3c0-0.3,0.1-0.6,0.4-0.9c0.2-0.2,0.4-0.4,0.6-0.6s0.5-0.2,0.7-0.3c0.2-0.1,0.4-0.1,0.6-0.2
		c0.1,0,0.2,0,0.3,0c0.1,0,0.1,0,0.1,0l0.1,0.1l0.1,0.1c0,0.1,0,0.2-0.1,0.2c-0.1,0.1-0.1,0.1-0.2,0.1h-0.1c-0.1,0-0.2,0-0.3,0.1
		c-0.1,0-0.3,0.1-0.4,0.1c-0.1,0.1-0.3,0.1-0.4,0.2s-0.3,0.2-0.4,0.3c-0.1,0.1-0.2,0.2-0.3,0.4c-0.1,0.2-0.1,0.3-0.2,0.5
		c-0.1,0.4,0,0.7,0.1,0.7s0.3,0,0.5-0.2c0.3-0.2,0.5-0.4,0.7-0.7c0.5-0.7,0.9-1.2,1.2-1.4c0.1-0.1,0.2-0.1,0.4,0l0,0
		c0.1,0.1,0.2,0.2,0.1,0.3l0,0c-0.2,0.5-0.4,1.1-0.5,1.6s-0.1,0.9,0,1c0,0,0,0,0.1,0s0.2,0,0.3,0c0.1-0.1,0.3-0.1,0.5-0.2
		c0.3-0.2,0.5-0.3,0.7-0.5C25.8,28.1,26.1,27.8,26.5,27.5C26.3,27.5,26.4,27.5,26.5,27.5z"/>
	<path class="st1" d="M35.9,20.8C36,20.8,36,20.8,35.9,20.8l0.2,0.1c0,0,0.1,0.1,0,0.2c0,0.1,0,0.2-0.1,0.2
		c-0.1,0.1-0.1,0.1-0.2,0.1l-7.5,0.8c-3.9,12.6-5.1,16.6-5.3,16.7c-0.2,0.1-0.5,0.1-0.6-0.2c-0.2-0.2,1-4.1,5.3-16.5l-1.8,0.2l0,0
		h-0.1c0,0-0.1,0-0.1-0.1c0,0-0.1,0-0.1-0.1v-0.1c0-0.1,0-0.2,0.1-0.2c0.1-0.1,0.1-0.1,0.2-0.1l2.1-0.2l0.4-1c0-0.1,0.1-0.1,0.1-0.2
		c0.1,0,0.1,0,0.2,0s0.1,0.1,0.1,0.2s0,0.2,0,0.2l-0.3,0.8L35.9,20.8z"/>
	<path class="st1" d="M31.6,27.5c0.1,0.1,0.1,0.1,0.1,0.2s0,0.2-0.1,0.2C31.5,28,31.5,28,31.4,28c-0.7,0.5-1.4,1.1-2.1,1.7
		c-0.4,0.4-0.8,0.5-1,0.5c-0.1,0-0.2,0-0.3-0.1c-0.1-0.2-0.2-0.3-0.2-0.5c0-0.3,0-0.5,0.1-0.8c0.1-0.4,0.2-0.7,0.3-1
		c0.1-0.4,0.3-0.7,0.4-1s0.3-0.6,0.4-0.9c0-0.1,0.1-0.1,0.1-0.2c0.1,0,0.1,0,0.2,0s0.1,0.1,0.1,0.2s0,0.2,0,0.2
		c-0.4,0.8-0.7,1.5-0.9,2.3c-0.2,0.7-0.3,1.1-0.2,1.3h0.1h0.1h0.1c0.1,0,0.1-0.1,0.1-0.1s0.1-0.1,0.2-0.1c0.1-0.1,0.1-0.1,0.2-0.2
		c0.6-0.5,1.1-0.9,1.4-1.1c0.2-0.2,0.5-0.4,0.7-0.5C31.3,27.6,31.4,27.6,31.6,27.5C31.6,27.4,31.6,27.5,31.6,27.5z M29.2,23.6
		c0.1-0.4,0.3-0.7,0.6-0.8c0.2-0.1,0.5,0,0.6,0.1s0.2,0.3,0.2,0.4c0,0.3-0.1,0.5-0.3,0.8c-0.2,0.2-0.5,0.3-0.8,0.2
		C29.2,24.2,29.1,24,29.2,23.6L29.2,23.6z"/>
	<path class="st1" d="M36,27.5c0.1,0,0.1,0.1,0.2,0.1c0,0.1,0.1,0.1,0.1,0.2s0,0.1-0.1,0.2l-2.1,1.6c-0.1,0.1-0.2,0.1-0.3,0l0,0
		c-0.1-0.1-0.1-0.2,0-0.4l0,0l0,0l0.1-0.1C34,29,34,28.9,34,28.9s0.1-0.2,0.1-0.3c0.1-0.1,0.1-0.2,0.1-0.4c0-0.1,0.1-0.2,0.1-0.4
		c0.1-0.2,0.1-0.3,0.1-0.5c0-0.1,0-0.3,0-0.5s0-0.4,0-0.6L34.3,26c-0.2,0-0.5,0.3-1.1,1c-0.7,0.8-1.2,1.6-1.8,2.5
		c-0.1,0.1-0.1,0.1-0.2,0.1h-0.1c-0.1,0-0.2-0.2-0.1-0.3l0,0l0.8-3.5c0-0.1,0.1-0.1,0.1-0.2c0.1-0.1,0.3-0.1,0.4,0.1l0,0
		c0,0.1,0.1,0.1,0,0.2L31.8,28c1.2-1.8,2.1-2.7,2.7-2.6c0.3,0.1,0.4,0.3,0.5,0.7c0.1,0.8,0,1.5-0.3,2.3l1.1-0.9
		C35.9,27.5,35.9,27.5,36,27.5z"/>
	<path class="st1" d="M40.6,27.5L40.6,27.5l0.2,0.1c0.1,0.1,0.1,0.1,0.1,0.2s0,0.2-0.1,0.2c-0.4,0.4-0.7,0.7-1,0.9
		c-0.3,0.2-0.5,0.4-0.8,0.5c-0.2,0.1-0.4,0.2-0.5,0.2s-0.2,0.1-0.4,0c-0.1,0-0.2-0.1-0.2-0.1c-0.2-0.2-0.3-0.5-0.2-0.7
		c-0.2,0.2-0.5,0.5-0.9,0.8C36.6,29.8,36.3,30,36,30c-0.1,0-0.2,0-0.3-0.1c-0.5-0.3-0.2-1.6,0.7-3.9c0-0.1,0.1-0.1,0.1-0.2
		c0.1,0,0.1,0,0.2,0s0.1,0.1,0.1,0.2s0,0.2,0,0.2c-0.3,0.7-0.5,1.4-0.7,2.1s-0.2,1.1-0.1,1.2c0.1,0,0.1-0.1,0.2-0.1l0.2-0.2
		c0.5-0.4,1.1-0.9,1.5-1.5c0.1-0.1,0.1-0.2,0.2-0.4c0-0.1,0.1-0.2,0.2-0.2s0.2,0,0.3,0.1c0.1,0.2,0.1,0.4-0.1,0.7
		c-0.1,0.2-0.2,0.5-0.2,0.8c-0.1,0.2-0.1,0.3,0,0.4h0.1c0.1,0,0.1,0,0.2-0.1c0.1-0.1,0.3-0.2,0.4-0.2c0.1-0.1,0.4-0.3,0.7-0.5
		C40,28.1,40.3,27.8,40.6,27.5C40.4,27.5,40.5,27.5,40.6,27.5z"/>
	<path class="st1" d="M47.9,27.5c0.1,0,0.1,0,0.2,0.1c0.1,0.1,0.1,0.1,0.1,0.2s0,0.2-0.1,0.2l-2.2,2c-0.1,0-0.1,0.1-0.2,0.1
		s-0.1,0-0.1-0.1c-0.1-0.1-0.1-0.2-0.1-0.3c0.4-1.4,0.7-2.9,0.7-4.4c0-0.1,0-0.1,0-0.2c-0.3,0.2-0.7,0.7-1.2,1.5
		c-0.6,0.9-1.2,1.8-1.8,2.8c-0.1,0.1-0.2,0.2-0.3,0.1l0,0c-0.1,0-0.2-0.2-0.1-0.3c0,0,0,0,0-0.1c0.2-0.5,0.4-1.5,0.6-3
		c0-0.1,0-0.2,0-0.3c-0.2,0.1-0.6,0.5-1.1,1.1c-0.5,0.7-1.1,1.4-1.6,2.2c-0.1,0.1-0.2,0.2-0.3,0.1c-0.1,0-0.2-0.2-0.1-0.3l0,0L41,26
		c0-0.1,0.1-0.1,0.1-0.2c0.1,0,0.1-0.1,0.2,0c0.1,0,0.1,0.1,0.2,0.1c0,0.1,0.1,0.1,0,0.2l-0.4,1.5c1.3-1.8,2.2-2.6,2.6-2.4
		c0.3,0.1,0.4,0.4,0.3,0.9c-0.1,0.5-0.1,0.9-0.2,1.4c0.5-0.8,1.1-1.6,1.6-2.3c0.5-0.6,0.9-0.9,1.1-0.8c0.3,0.1,0.4,0.3,0.4,0.8
		c-0.1,1.2-0.2,2.4-0.5,3.6L47.9,27.5C47.7,27.5,47.8,27.5,47.9,27.5z"/>
</g>
</svg>
