<?xml version="1.0" encoding="utf-8"?>
<!-- Generator: Adobe Illustrator 23.0.0, SVG Export Plug-In . SVG Version: 6.00 Build 0)  -->
<svg version="1.1" id="Layer_1" xmlns="http://www.w3.org/2000/svg" xmlns:xlink="http://www.w3.org/1999/xlink" x="0px" y="0px"
	 width="51px" height="51px" viewBox="0 0 51 51" style="enable-background:new 0 0 51 51;" xml:space="preserve">
<style type="text/css">
	.st0{fill:#FFA100;}
	.st1{fill:#006643;}
</style>
<g>
	<g id="Layer_1-2">
		<path class="st0" d="M25.43,34.5H7.38c-1.46,0-1.68-0.27-1.46-1.53c0.37-2.13,0.66-4.19,1.1-6.31C7.3,25.33,8.18,24.2,9.5,23.6
			c2.49-1.26,5.04-2.46,7.6-3.59c0.58-0.07,1.17,0.07,1.61,0.4c3.73,2.66,8.33,3.06,12.21,0.86c0.58-0.33,1.1-0.66,1.61-1.06
			c0.44-0.4,1.1-0.47,1.61-0.13c2.27,1.06,4.61,2.13,6.87,3.26c1.75,0.8,2.92,2.33,3.14,4.12c0.22,1.79,0.58,3.65,0.95,5.45
			c0.22,1.2-0.15,1.59-1.46,1.59H25.43z"/>
		<path class="st0" d="M33.61,13.2c-0.23,0.52-2.72,5.76-7.87,5.89c-4.46,0.13-7.49-3.66-8.55-6.28c-0.3-0.79-1.29-3.4,0.08-6.41
			c1.13-2.62,4.31-6.09,8.7-5.89c5.07,0.2,7.49,5.17,7.72,5.63C35.2,9.47,33.99,12.42,33.61,13.2z"/>
	</g>
</g>
<g>
	<path class="st1" d="M44.93,50.5H5.07c-0.51,0-0.92-0.41-0.92-0.92v-0.16c0-0.51,0.41-0.92,0.92-0.92h39.87
		c0.51,0,0.92,0.41,0.92,0.92v0.16C45.85,50.09,45.44,50.5,44.93,50.5z"/>
	<path class="st1" d="M44.01,47.5H6.05c-1.13,0-2.08-0.76-2.18-1.76L2.01,27.61C1.89,26.48,2.9,25.5,4.19,25.5h42.62
		c1.33,0,2.35,1.03,2.17,2.19l-2.8,18.13C46.03,46.79,45.11,47.5,44.01,47.5z"/>
</g>
</svg>
