<?xml version="1.0" encoding="utf-8"?>
<!-- Generator: Adobe Illustrator 19.1.0, SVG Export Plug-In . SVG Version: 6.00 Build 0)  -->
<svg version="1.1" id="Layer_1" xmlns="http://www.w3.org/2000/svg" xmlns:xlink="http://www.w3.org/1999/xlink" x="0px" y="0px"
	 width="50.2px" height="52px" viewBox="-280 371 50.2 52" style="enable-background:new -280 371 50.2 52;" xml:space="preserve">
<style type="text/css">
	.st0{fill:#FFA100;}
</style>
<g id="Layer_2">
	<g id="Layer_1-2">
		<path class="st0" d="M-263.1,388.7V384c0-1,0-1.9,0-2.9c0-0.3,0.1-0.6,0.4-0.8l11-9c0.3-0.3,0.7-0.4,1.1-0.1
			c0.1,0,0.1,0.1,0.1,0.1c1.7,1.7,3.3,3.4,5,5.1c0.3,0.3,0.4,0.7,0.4,1.1c0,5,0,10,0,15v0.6c0.2-0.1,0.3-0.2,0.4-0.3
			c1.3-0.8,2.7-1.7,4-2.5c0.3-0.2,0.7-0.2,1,0c1.4,0.7,2.8,1.5,4.3,2.2c0.4,0.2,0.7,0.6,0.7,1.1c0,8.4,0,16.8,0,25.2v0.6h4.2
			c0.4-0.1,0.8,0.2,0.8,0.6c0,0.1,0,0.1,0,0.2c0,0.6,0,1.3,0,1.9s-0.2,0.8-0.8,0.8h-48.6c-0.5,0-0.8-0.3-0.8-0.8s0-1.4,0.1-2
			c0-0.5,0.3-0.7,0.8-0.7h4.1v-0.6c0-8.9,0-17.8,0-26.7c0-0.5,0.2-1,0.7-1.3c2-1.4,4-2.7,6-4.1c0.3-0.2,0.7-0.2,1,0
			C-266,387.4-264.6,388-263.1,388.7z M-252.4,419.4h5.8c0-0.2,0-0.3,0-0.4c0-13.7,0-27.5,0-41.2c0-0.3-0.1-0.5-0.3-0.7
			c-1.3-1.4-2.7-2.8-4-4.1c-0.1-0.1-0.2-0.2-0.3-0.3c-0.8,0.3-1.3,1.1-1.2,2c0,14.7,0,29.4,0,44.1V419.4z M-263.2,419.4
			c0-0.2,0-0.3,0-0.4c0-9.4,0-18.9,0-28.3c0-0.3-0.1-0.5-0.4-0.6c-1.1-0.5-2.1-1-3.2-1.5c-0.1,0-0.2-0.1-0.4-0.1v31h4V419.4z
			 M-245.2,419.4c1.3,0,2.4,0,3.6,0c0.5,0,0.6-0.1,0.6-0.6c0-8.7,0-17.4,0-26.1v-0.6c-0.2,0.1-0.4,0.2-0.5,0.3
			c-1.1,0.7-2.1,1.4-3.2,2.1c-0.3,0.2-0.5,0.5-0.5,0.9c0,7.8,0,15.6,0,23.5L-245.2,419.4z M-278.5,421.6h47.3v-0.8h-47.3V421.6z"/>
	</g>
</g>
</svg>
