<?xml version="1.0" encoding="utf-8"?>
<!-- Generator: Adobe Illustrator 19.1.0, SVG Export Plug-In . SVG Version: 6.00 Build 0)  -->
<svg version="1.1" id="Layer_1" xmlns="http://www.w3.org/2000/svg" xmlns:xlink="http://www.w3.org/1999/xlink" x="0px" y="0px"
	 width="35px" height="35px" viewBox="0 0 35 35" style="enable-background:new 0 0 35 35;" xml:space="preserve">
<style type="text/css">
	.st0{fill:#4073B9;}
</style>
<path id="Path_10" class="st0" d="M23.1,13.5v0.3c-0.1,0.7-0.2,1.3-0.3,2c-0.1,0.5-0.1,1.1-0.2,1.7h-3.8v10.6h-4.2V17.5h-2.8v-4h2.8
	v-1.9c-0.1-2.1,1.4-4,3.5-4.5c0.4-0.1,0.8-0.2,1.3-0.3H23v4c-0.4,0-0.8,0-1.1,0c-0.7,0-1.4,0-2.1,0c-0.3,0-0.5,0.1-0.5,0.4v2.2
	L23.1,13.5z"/>
</svg>
