<?xml version="1.0" encoding="utf-8"?>
<!-- Generator: Adobe Illustrator 19.1.0, SVG Export Plug-In . SVG Version: 6.00 Build 0)  -->
<svg version="1.1" id="Layer_1" xmlns="http://www.w3.org/2000/svg" xmlns:xlink="http://www.w3.org/1999/xlink" x="0px" y="0px"
	 viewBox="-112 26 90 90" style="enable-background:new -112 26 90 90;" xml:space="preserve">
<style type="text/css">
	.st0{display:none;}
	.st1{display:inline;}
	.st2{fill:#FFFFFF;}
	.st3{enable-background:new    ;}
	.st4{fill:#F2AE1D;}
	.st5{fill:#026744;}
</style>
<g id="Layer_2">
	<g id="Layer_3">
		<path class="st5" d="M-67,33.4c-16.4,0-29.8,13.8-29.8,31.2c0,8.9,6.3,19.7,13,28.3c3,3.7,6.3,7.4,9.7,10.8
			c1.1,1.1,2.6,2.2,3.7,3.3c1.1,0.7,2.2,1.5,3.3,1.5c1.1,0,2.6-0.7,3.3-1.5c1.5-1.1,2.6-2.2,3.7-3.3c3.3-3.3,6.7-7.1,9.7-10.8
			c6.7-8.6,13-19.3,13-28.3C-37.2,47.6-50.6,33.4-67,33.4z M-67,55.4c4.8,0,8.9,4.1,8.9,9.3c0,5.2-4.1,9.3-8.9,9.3s-8.9-4.1-8.9-9.3
			l0,0C-75.9,59.5-71.8,55.4-67,55.4z"/>
	</g>
</g>
<path class="st2" d="M-65,74h-4.1c-7.8,0-14.1-6-14.1-13v-6c0-7.4,6.3-13,14.1-13h4.1c7.8,0,14.1,6,14.1,13v6
	C-50.5,67.7-57.2,74-65,74z"/>
</svg>
