<?xml version="1.0" encoding="utf-8"?>
<!-- Generator: Adobe Illustrator 19.1.0, SVG Export Plug-In . SVG Version: 6.00 Build 0)  -->
<svg version="1.1" id="Layer_1" xmlns="http://www.w3.org/2000/svg" xmlns:xlink="http://www.w3.org/1999/xlink" x="0px" y="0px"
	 width="35px" height="35px" viewBox="-288 379 35 35" style="enable-background:new -288 379 35 35;" xml:space="preserve">
<style type="text/css">
	.st0{display:none;fill:none;}
	.st1{fill:#00643E;}
	.st2{fill:#00643E;stroke:#FFFFFF;stroke-miterlimit:10;}
	.st3{fill:none;stroke:#FFFFFF;stroke-width:0.75;stroke-miterlimit:10;}
	.st4{fill:#FAB416;}
	.st5{fill:#FFFFFF;}
	.st6{fill:#F99B1F;}
</style>
<g>
	<rect x="-288" y="379" class="st0" width="35" height="35"/>
	<path class="st1" d="M-280,379h19c4.4,0,8,3.6,8,8v19c0,4.4-3.6,8-8,8h-19c-4.4,0-8-3.6-8-8v-19C-288,382.6-284.4,379-280,379z"/>
	<path class="st1" d="M-280,379.5h19c4.1,0,7.5,3.4,7.5,7.5v19c0,4.1-3.4,7.5-7.5,7.5h-19c-4.1,0-7.5-3.4-7.5-7.5v-19
		C-287.5,382.9-284.1,379.5-280,379.5z"/>
</g>
<g>
	<path class="st2" d="M-255.5,413.5h-2.4c-1.2,0-2.1-1-2.1-2.1v-1.5c0-1.2,1-2.1,2.1-2.1h2.4c1.2,0,2.1,1,2.1,2.1v1.5
		C-253.4,412.5-254.3,413.5-255.5,413.5z"/>
	<path class="st3" d="M-258.3,408.1c0.2-1.6-1.3-2.5,1.5-2.5c2.9,0,1.3,0.6,1.7,2.3"/>
	<g>
		<path class="st4" d="M-256.7,411.1L-256.7,411.1c-0.4,0-0.6-0.3-0.6-0.6l0,0c0-0.3,0.3-0.6,0.6-0.6l0,0c0.3,0,0.6,0.3,0.6,0.6l0,0
			C-256.1,410.8-256.4,411.1-256.7,411.1z"/>
		<polyline class="st4" points="-256.7,410.5 -257.7,412.3 -255.7,412.3 		"/>
	</g>
</g>
<g>
	<path class="st5" d="M-277.6,386.3c-0.2,0.1-0.4-0.6-0.4-0.8s-0.1-0.3-0.2-0.3c-0.2,0.1-0.1,0.3,0,0.5c0.1,0.2,0.1,0.4,0.1,0.6
		c0,0,0,0.2-0.2,0.2c-0.4,0.1-0.3-0.8-0.3-0.8s-0.1-0.2-0.2-0.2c-0.1,0-0.2,0.2-0.2,0.2c0.1,0.3,0.1,0.6,0.2,0.9
		c0.2,0.6,0.5,0.5,0.7,0.4c0.1,0,0.2-0.3,0.3-0.4c0.1,0,0.5,0.1,0.6-0.2c0.2-0.6-0.2-1.2-0.3-1.4s-0.2,0-0.2,0
		C-277.6,385.4-277.3,386.1-277.6,386.3 M-266,383.3c-0.5,0.2-0.7,0.7-0.7,1.3s0.6,0.8,0.6,0.8c-0.1,0.2-0.2,0.5-0.1,0.7
		c0.1,0.3,0.1,0.2,0.1,0.2c0.1-0.5,0.5-0.9,0.9-1c0.2-0.1,0.2-0.2,0.2-0.2s0.2-0.8,0.1-0.8c-0.2,0.1-0.4,0.2-0.6,0.3
		c-0.1,0.1-0.5,0.2-0.6,0c-0.2-0.3,0.2-0.3,0.3-0.3c0.1,0,0.2,0,0.5-0.3c0.1-0.1,0.1-0.2,0-0.3C-265.4,383.4-265.7,383.2-266,383.3
		 M-267.3,383.5c0.6-0.5,1.1-0.9,1.7-1.3c0.2-0.1,0.3-0.4,0.3-0.7c-0.8,0.3-1.5,0.8-2.1,1.5C-267.7,383.2-267.4,383.5-267.3,383.5
		 M-281.1,386.4c1.1-0.5,1.9-1.4,2.6-2.4l0.2,0.2c0,0,0.3-0.2,0.3-1l-0.2-0.3c0,0,0.2-0.7-0.1-1.1c-0.3-0.3-0.8,0.1-0.9,0.3
		c-0.1,0.2-0.4,0.9,0.3,1.6c0,0-0.7,1.4-2.8,2.5l-0.1,0.1C-281.7,386.5-281.6,386.6-281.1,386.4 M-278.8,382.4
		c0.2-0.2,0.5,0.3,0.1,0.5C-278.8,382.9-279,382.6-278.8,382.4 M-264.7,389l1.2-1.4c0,0,0.1,3.8,0,4.7c-0.1,0.9,0.5-0.4,0.5-1.4
		c0.1-1,0-4,0-4s3-3.5,3.3-5.2c0.1-0.4-0.2-0.3-0.3-0.2c-0.1,0.1-2.4,3.8-3.2,4.4l-0.2-1.8c0,0,0.1-0.2,0.2-0.1
		c0.1,0.1,0.2,0.2,0.2,0.1c0.1-0.1,0-0.2,0-0.2l-0.7-2.2c0,0-0.1-0.2-0.2-0.1c-0.1,0.3-0.2,0.6-0.3,0.8c0,0,0.6,2.5,0.4,4.1
		l-1.6,1.8l-3.5-4c0,0-0.1-0.3,0.1-0.3c0.2,0,0.2-0.2,0.1-0.3c-0.2-0.1-1.8-1.4-1.8-1.4l0.1,1.3l4.5,5.4c-0.5,0.5-0.8,1.1-0.8,1.8
		c0,1.1,0.3,1.2,0.8,1.3c0.4,0,1.3-0.3,1.4-1.6C-264.3,389.5-264.7,389-264.7,389 M-265.3,390.9c-0.4,0.1-0.6-0.1-0.6-0.2
		c0-0.2,0.2-0.9,0.7-1c0,0,0.4,0.4,0.4,0.6C-264.8,390.5-265,390.8-265.3,390.9 M-267.7,390.6c0-1.4-1.3-1.5-1.3-1.5
		c0.1-0.1,0.4-0.7,0.5-1.7c0.1-1.1-0.4-2-0.6-2c-0.1,0-0.6,1.6-0.7,2.4c-0.1,0.7-0.4,0.8-0.4,0.8c-0.3,0.3-0.8,0.5-2.3,0.8
		c-1.5,0.3-2.4-0.6-2.7-1.4c-0.3-0.9-0.8-6.1-0.8-6.4c0-0.3-0.2-0.2-0.2-0.1c-0.1,0.8-0.1,1.7-0.1,2.5c0,1,0.3,2.2,0.4,3
		c0.1,1.2-0.7,1.9-1.1,2c-0.3,0.1-0.4,0.3-0.4,0.3s-0.2,0.9-0.1,1c0.1,0.1,1.1,0,1.3,0.1c0.2,0.1,0.5,0.1,0.4,0.3
		c-0.1,0.1-0.8,1.2-2.4,1.5c-0.5,0.1-1.1,0.1-1.6,0c-0.4-0.1-0.8-0.4-1-0.8c-0.7-1.4,0.2-2.8,0.1-3c-0.2-0.4-1,1.2-0.9,2
		c0,1.2,0.8,2.2,1.2,2.4c1,0.5,2.2,0.5,3.2,0c1.7-0.9,2.2-2.3,2.1-2.8c-0.1-0.3-0.3-0.5-0.6-0.6c-0.3-0.2-0.3-0.3-0.2-0.4
		s0.2-0.2,0.3,0c0.3,0.3,0.8,1.4,2.5,1.5c0.8,0,1.5-0.1,2.3-0.4c0.1-0.1,0.7-0.4,0.8,0c0.1,0.6,0.2,1.6,1.4,1.8
		C-268.5,391.9-267.7,392-267.7,390.6 M-269.2,387.2c0.1,0,0.3,0.3,0.2,0.6c-0.1,0.3-0.2,0.6-0.5,0.4
		C-269.7,388-269.4,387.3-269.2,387.2 M-269,390.7c-0.2-0.1-0.4-0.4-0.3-0.6c0.1-0.1,0.8,0,0.9,0.5
		C-268.3,390.8-268.9,390.8-269,390.7 M-274.2,392c0.2-0.1,0.3-0.4,0.3-0.7c-0.8,0.3-1.5,0.8-2.1,1.5c-0.2,0.2,0.1,0.5,0.1,0.5
		C-275.4,392.8-274.8,392.4-274.2,392"/>
	<path class="st5" d="M-274.5,393.9h1.2v9.5h-1.1l-5.8-7.3v7.3h-1.2v-9.5h1l5.8,7.4C-274.5,401.3-274.5,393.9-274.5,393.9z"/>
	<path class="st5" d="M-268.6,403.4h-2.9v-9.5h2.3c0.6,0,1.1,0.1,1.7,0.3c0.8,0.4,1.3,1.2,1.2,2.2c0,0.9-0.5,1.6-1.3,2
		c0.6,0.1,1.1,0.4,1.5,0.9c0.4,0.4,0.6,1,0.6,1.6c0,0.5-0.1,0.9-0.3,1.3c-0.2,0.4-0.6,0.7-1,0.9C-267.4,403.3-268,403.4-268.6,403.4
		z M-269.2,395.1h-1.1v2.8h0.8c0.7,0,1.1-0.1,1.4-0.4c0.3-0.3,0.4-0.7,0.4-1.1C-267.6,395.5-268.1,395.1-269.2,395.1z M-269.1,399.2
		h-1.2v3h1.3c0.5,0,0.9,0,1.4-0.2s0.8-0.8,0.8-1.3c0-0.3-0.1-0.6-0.2-0.8c-0.2-0.3-0.4-0.4-0.7-0.6
		C-268.2,399.2-268.6,399.1-269.1,399.2L-269.1,399.2z"/>
	<path class="st5" d="M-264.3,393.9h4.9v1.2h-3.7v2.9h3.6v1.2h-3.6v2.9h3.8v1.2h-5C-264.3,403.3-264.3,393.9-264.3,393.9z"/>
	<g>
		<path class="st6" d="M-280,411.6v-5.8h1.8c0.5,0,1,0.2,1.3,0.5c0.3,0.3,0.5,0.7,0.5,1.2c0,0.3-0.1,0.6-0.2,0.9s-0.4,0.5-0.7,0.6
			c-0.3,0.1-0.7,0.2-1.2,0.2h-0.6v2.5H-280z M-278.4,406.5h-0.8v1.8h0.9c0.3,0,0.6-0.1,0.7-0.2c0.2-0.2,0.3-0.4,0.3-0.7
			C-277.3,406.8-277.7,406.5-278.4,406.5z"/>
		<path class="st6" d="M-274.4,407.8c0.6,0,1,0.2,1.4,0.6s0.6,0.8,0.6,1.4c0,0.6-0.2,1-0.6,1.4c-0.4,0.4-0.8,0.5-1.4,0.5
			c-0.5,0-1-0.2-1.4-0.6c-0.4-0.4-0.6-0.8-0.6-1.4c0-0.6,0.2-1,0.6-1.4C-275.4,407.9-274.9,407.8-274.4,407.8z M-274.4,408.4
			c-0.3,0-0.6,0.1-0.9,0.4c-0.2,0.2-0.3,0.5-0.3,0.9c0,0.4,0.1,0.7,0.3,0.9s0.5,0.3,0.9,0.3c0.4,0,0.6-0.1,0.9-0.4
			c0.2-0.2,0.3-0.5,0.3-0.9c0-0.4-0.1-0.7-0.4-0.9C-273.7,408.6-274,408.4-274.4,408.4z"/>
		<path class="st6" d="M-271.2,406.2c0.1,0,0.2,0,0.3,0.1c0.1,0.1,0.1,0.2,0.1,0.3c0,0.1,0,0.2-0.1,0.3s-0.2,0.1-0.3,0.1
			c-0.1,0-0.2,0-0.3-0.1c-0.1-0.1-0.1-0.2-0.1-0.3c0-0.1,0-0.2,0.1-0.3C-271.5,406.2-271.4,406.2-271.2,406.2z M-271.6,407.8h0.7
			v3.8h-0.7V407.8z"/>
		<path class="st6" d="M-269.1,407.8v0.5c0.3-0.4,0.7-0.6,1.1-0.6c0.2,0,0.4,0.1,0.6,0.2c0.2,0.1,0.3,0.3,0.4,0.5
			c0.1,0.2,0.2,0.6,0.2,1v2.2h-0.7v-2.2c0-0.4-0.1-0.7-0.2-0.8c-0.1-0.2-0.3-0.3-0.6-0.3c-0.3,0-0.6,0.2-0.9,0.5v2.7h-0.7v-3.8
			H-269.1z"/>
		<path class="st6" d="M-266.3,408.4l1.4-1.4v0.8h1.2v0.7h-1.2v1.9c0,0.4,0.2,0.7,0.5,0.7c0.3,0,0.5-0.1,0.8-0.3v0.7
			c-0.3,0.2-0.6,0.2-0.9,0.2c-0.3,0-0.6-0.1-0.8-0.3c-0.1-0.1-0.1-0.1-0.2-0.2s-0.1-0.2-0.1-0.3c0-0.1,0-0.4,0-0.7v-1.7
			L-266.3,408.4L-266.3,408.4z"/>
		<path class="st6" d="M-263.2,411.3v-0.8c0.2,0.1,0.4,0.3,0.6,0.4c0.2,0.1,0.4,0.1,0.5,0.1c0.2,0,0.3,0,0.4-0.1
			c0.1-0.1,0.2-0.2,0.2-0.3c0-0.1,0-0.2-0.1-0.3s-0.2-0.2-0.5-0.3c-0.5-0.3-0.8-0.5-0.9-0.7c-0.1-0.2-0.2-0.4-0.2-0.6
			c0-0.3,0.1-0.5,0.3-0.7c0.2-0.2,0.5-0.3,0.8-0.3c0.4,0,0.7,0.1,1.1,0.3v0.7c-0.4-0.3-0.8-0.4-1.1-0.4c-0.1,0-0.3,0-0.3,0.1
			s-0.1,0.1-0.1,0.2c0,0.1,0,0.2,0.1,0.3c0.1,0.1,0.2,0.2,0.4,0.3l0.3,0.2c0.6,0.4,0.9,0.8,0.9,1.2c0,0.3-0.1,0.6-0.4,0.8
			s-0.5,0.3-0.9,0.3c-0.2,0-0.4,0-0.6-0.1C-262.8,411.5-263,411.5-263.2,411.3z"/>
	</g>
</g>
</svg>
