<?xml version="1.0" encoding="utf-8"?>
<!-- Generator: Adobe Illustrator 19.1.0, SVG Export Plug-In . SVG Version: 6.00 Build 0)  -->
<svg version="1.1" id="Layer_1" xmlns="http://www.w3.org/2000/svg" xmlns:xlink="http://www.w3.org/1999/xlink" x="0px" y="0px"
	 width="141px" height="141px" viewBox="-235 326 141 141" style="enable-background:new -235 326 141 141;" xml:space="preserve">
<style type="text/css">
	.st0{fill:#006643;}
	.st1{fill:#FFFFFF;}
</style>
<g id="Layer_2">
	<g id="Layer_1-2">
		<path class="st0" d="M-205.6,327.6h82.3c15.3,0,27.8,12.4,27.8,27.8v82.3c0,15.3-12.4,27.8-27.8,27.8h-82.3
			c-15.3,0-27.8-12.4-27.8-27.8v-82.3C-233.4,340-221,327.6-205.6,327.6z"/>
	</g>
</g>
<g>
	<path class="st1" d="M-197.9,382.4v-12.3c-3.8-1.1-6.6-2.7-8.4-5c-1.8-2.2-2.7-4.9-2.7-8.1s1-5.9,3-8.1s4.7-3.4,8.1-3.8v-2.9h4.2
		v2.9c3.1,0.4,5.6,1.4,7.4,3.2c1.8,1.7,3,4.1,3.5,7l-7.4,1c-0.4-2.3-1.6-3.9-3.5-4.7v11.5c4.7,1.3,7.9,2.9,9.6,4.9s2.5,4.6,2.5,7.8
		c0,3.5-1.1,6.5-3.2,8.9c-2.1,2.4-5.1,3.9-8.9,4.5v5.5h-4.2v-5.3c-3.4-0.4-6.1-1.7-8.2-3.8s-3.5-5.1-4-8.9l7.6-0.8
		c0.3,1.6,0.9,2.9,1.8,4C-199.9,381.1-199,381.9-197.9,382.4z M-197.9,351.7c-1.2,0.4-2.1,1.1-2.8,2s-1,2-1,3.1c0,1,0.3,2,0.9,2.9
		c0.6,0.9,1.6,1.6,2.8,2.2v-10.2H-197.9z M-193.7,382.8c1.5-0.3,2.7-1,3.6-2c0.9-1.1,1.4-2.4,1.4-3.8c0-1.3-0.4-2.4-1.2-3.4
		c-0.8-0.9-2-1.7-3.8-2.2V382.8z"/>
</g>
<g>
	<g>
		<path class="st1" d="M-116.2,345.3l-1.7,8.1c-1.7-1.7-4.1-2.5-7.3-2.5c-3.2,0-5.8,1.1-7.7,3.4c-1.1,1.3-1.9,2.9-2.4,4.8h16.1
			l-0.9,4.5h-15.8c0,0.4,0,1,0,1.7s0,1.4,0.1,2.1h14.9l-0.9,4.5h-13.4c0.5,2.1,1.2,3.7,2.3,4.9c2,2.3,4.5,3.5,7.6,3.5
			c3.8,0,6.7-1.2,9-3.5v9c-2.5,1.3-5.5,1.9-8.9,1.9c-5.7,0-10.4-2-14.1-5.9c-2.5-2.7-4.2-6-5-9.9h-4.3l0.9-4.5h2.9c0-0.5,0-1,0-1.5
			c0-0.9,0-1.7,0.1-2.4h-3.8l0.9-4.5h3.5c0.8-3.9,2.5-7.1,4.9-9.8c3.7-3.9,8.5-5.9,14.6-5.9C-121.5,343.5-118.6,344.1-116.2,345.3z"
			/>
	</g>
</g>
<g>
	<g>
		<path class="st1" d="M-183,439l3.2,7c-1.1,0.6-2.4,1.1-3.9,1.5s-2.9,0.6-4.2,0.6c-1.8,0-4.1-0.4-7-1.2s-5.1-1.2-6.5-1.2
			c-2.4,0-4.8,0.8-7.3,2.5l-3.1-7.1c2.2-1.6,3.8-3.3,4.8-5.1s1.5-3.5,1.5-5.1c0-0.5,0-1.1-0.1-1.7h-6.1v-6.5h4.6
			c-0.8-2.3-1.2-4.6-1.2-7c0-2.1,0.6-4.2,1.7-6.1s2.8-3.4,4.9-4.4c2.1-1,4.5-1.5,7-1.5c3.8,0,6.9,1,9.2,2.9s3.7,4.7,4.2,8.4
			l-7.9,1.2c-0.4-2.1-1-3.6-2-4.5s-2.2-1.4-3.7-1.4c-1.6,0-2.9,0.5-3.9,1.6c-1,1-1.6,2.4-1.6,3.9c0,0.8,0.1,1.9,0.4,3.3
			s0.6,2.6,1,3.7h9.1v6.5h-7.8c0.1,0.4,0.1,0.9,0.1,1.3c0,1.5-0.3,3-0.9,4.3c-0.6,1.3-1.8,3-3.6,5.2c1.1-0.5,2.4-0.8,4-0.8
			c0.7,0,1.3,0,1.8,0.1c0.3,0,1.1,0.2,2.4,0.6c2.4,0.6,4,0.9,4.8,0.9C-187.4,440.6-185.4,440.1-183,439z"/>
	</g>
</g>
<g>
	<g>
		<path class="st1" d="M-132.9,442.7h-10.9v-6.5h10.9v-3.5h-10.9v-6.5h7.6l-9.1-18.5h9l5.9,12.5c0.7,1.6,1.3,2.9,1.6,4.1
			c0.4-1.3,0.9-2.7,1.6-4.1l6-12.5h9l-9.2,18.5h7.8v6.5h-11v3.5h11v6.5h-11v8h-8.2v-8H-132.9z"/>
	</g>
</g>
</svg>
